<?xml version="1.0" encoding="UTF-8"?>
<svg xmlns="http://www.w3.org/2000/svg" xmlns:xlink="http://www.w3.org/1999/xlink" width="2836" height="2837" viewBox="0 0 2836 2837">
<defs>
<clipPath id="clip-0">
<path clip-rule="nonzero" d="M 0.511719 1.449219 L 2835.160156 1.449219 L 2835.160156 2836.09375 L 0.511719 2836.09375 Z M 0.511719 1.449219 "/>
</clipPath>
</defs>
<path fill-rule="evenodd" fill="rgb(58.984375%, 58.984375%, 58.984375%)" fill-opacity="1" d="M 1 0.351562 L 2835.648438 0.351562 L 2835.648438 2835 L 1 2835 L 1 0.351562 "/>
<g clip-path="url(#clip-0)">
<path fill-rule="evenodd" fill="rgb(31.005859%, 31.005859%, 31.005859%)" fill-opacity="1" d="M 0.511719 1.449219 L 2835.160156 1.449219 L 2835.160156 2836.09375 L 0.511719 2836.09375 Z M 2835.160156 1.449219 L 0.511719 1.449219 L 0.511719 2836.101562 L 2835.160156 2836.101562 Z M 2251.339844 -1290.558594 L -1291.5 585.269531 L 584.335938 4128.109375 L 4127.171875 2252.273438 Z M 2251.339844 -1290.558594 "/>
<path fill-rule="evenodd" fill="rgb(31.005859%, 31.005859%, 31.005859%)" fill-opacity="1" d="M 2201.328125 -1128 L -1128.941406 635.28125 L 634.34375 3965.550781 L 3964.609375 2202.261719 Z M 2201.328125 -1128 "/>
<path fill-rule="evenodd" fill="rgb(31.738281%, 31.738281%, 31.738281%)" fill-opacity="1" d="M 2195.210938 -1108.109375 L -1109.039062 641.398438 L 640.464844 3945.648438 L 3944.710938 2196.140625 Z M 2195.210938 -1108.109375 "/>
<path fill-rule="evenodd" fill="rgb(32.469177%, 32.469177%, 32.469177%)" fill-opacity="1" d="M 2189.078125 -1088.210938 L -1089.148438 647.519531 L 646.585938 3925.75 L 3924.820312 2190.019531 Z M 2189.078125 -1088.210938 "/>
<path fill-rule="evenodd" fill="rgb(33.226013%, 33.226013%, 33.226013%)" fill-opacity="1" d="M 2182.960938 -1068.308594 L -1069.25 653.640625 L 652.707031 3905.859375 L 3904.921875 2183.898438 Z M 2182.960938 -1068.308594 "/>
<path fill-rule="evenodd" fill="rgb(33.959961%, 33.959961%, 33.959961%)" fill-opacity="1" d="M 2176.839844 -1048.421875 L -1049.351562 659.761719 L 658.828125 3885.960938 L 3885.019531 2177.777344 Z M 2176.839844 -1048.421875 "/>
<path fill-rule="evenodd" fill="rgb(34.692383%, 34.692383%, 34.692383%)" fill-opacity="1" d="M 2170.71875 -1028.519531 L -1029.460938 665.890625 L 664.949219 3866.058594 L 3865.128906 2171.65625 Z M 2170.71875 -1028.519531 "/>
<path fill-rule="evenodd" fill="rgb(35.423279%, 35.423279%, 35.423279%)" fill-opacity="1" d="M 2164.601562 -1008.621094 L -1009.558594 672.011719 L 671.070312 3846.171875 L 3845.230469 2165.535156 Z M 2164.601562 -1008.621094 "/>
<path fill-rule="evenodd" fill="rgb(36.180115%, 36.180115%, 36.180115%)" fill-opacity="1" d="M 2158.480469 -988.730469 L -989.664062 678.128906 L 677.191406 3826.269531 L 3825.328125 2159.414062 Z M 2158.480469 -988.730469 "/>
<path fill-rule="evenodd" fill="rgb(36.914062%, 36.914062%, 36.914062%)" fill-opacity="1" d="M 2152.359375 -968.828125 L -969.765625 684.25 L 683.3125 3806.371094 L 3805.441406 2153.292969 Z M 2152.359375 -968.828125 "/>
<path fill-rule="evenodd" fill="rgb(37.646484%, 37.646484%, 37.646484%)" fill-opacity="1" d="M 2146.238281 -948.929688 L -949.871094 690.371094 L 689.433594 3786.476562 L 3785.539062 2147.171875 Z M 2146.238281 -948.929688 "/>
<path fill-rule="evenodd" fill="rgb(38.401794%, 38.401794%, 38.401794%)" fill-opacity="1" d="M 2140.121094 -929.039062 L -929.972656 696.488281 L 695.554688 3766.578125 L 3765.640625 2141.050781 Z M 2140.121094 -929.039062 "/>
<path fill-rule="evenodd" fill="rgb(39.134216%, 39.134216%, 39.134216%)" fill-opacity="1" d="M 2133.988281 -909.140625 L -910.074219 702.609375 L 701.675781 3746.683594 L 3745.75 2134.929688 Z M 2133.988281 -909.140625 "/>
<path fill-rule="evenodd" fill="rgb(39.868164%, 39.868164%, 39.868164%)" fill-opacity="1" d="M 2127.871094 -889.238281 L -890.179688 708.730469 L 707.796875 3726.785156 L 3725.851562 2128.808594 Z M 2127.871094 -889.238281 "/>
<path fill-rule="evenodd" fill="rgb(40.600586%, 40.600586%, 40.600586%)" fill-opacity="1" d="M 2121.75 -869.351562 L -870.28125 714.851562 L 713.917969 3706.890625 L 3705.949219 2122.6875 Z M 2121.75 -869.351562 "/>
<path fill-rule="evenodd" fill="rgb(41.355896%, 41.355896%, 41.355896%)" fill-opacity="1" d="M 2115.628906 -849.449219 L -850.386719 720.96875 L 720.039062 3686.992188 L 3686.058594 2116.566406 Z M 2115.628906 -849.449219 "/>
<path fill-rule="evenodd" fill="rgb(42.088318%, 42.088318%, 42.088318%)" fill-opacity="1" d="M 2109.511719 -829.550781 L -830.488281 727.101562 L 726.160156 3667.097656 L 3666.160156 2110.445312 Z M 2109.511719 -829.550781 "/>
<path fill-rule="evenodd" fill="rgb(42.822266%, 42.822266%, 42.822266%)" fill-opacity="1" d="M 2103.390625 -809.660156 L -810.59375 733.21875 L 732.28125 3647.199219 L 3646.261719 2104.324219 Z M 2103.390625 -809.660156 "/>
<path fill-rule="evenodd" fill="rgb(43.554688%, 43.554688%, 43.554688%)" fill-opacity="1" d="M 2097.269531 -789.761719 L -790.695312 739.339844 L 738.402344 3627.304688 L 3626.371094 2098.203125 Z M 2097.269531 -789.761719 "/>
<path fill-rule="evenodd" fill="rgb(44.309998%, 44.309998%, 44.309998%)" fill-opacity="1" d="M 2091.148438 -769.859375 L -770.800781 745.460938 L 744.523438 3607.40625 L 3606.46875 2092.085938 Z M 2091.148438 -769.859375 "/>
<path fill-rule="evenodd" fill="rgb(45.042419%, 45.042419%, 45.042419%)" fill-opacity="1" d="M 2085.03125 -749.96875 L -750.902344 751.578125 L 750.644531 3587.511719 L 3586.570312 2085.964844 Z M 2085.03125 -749.96875 "/>
<path fill-rule="evenodd" fill="rgb(45.776367%, 45.776367%, 45.776367%)" fill-opacity="1" d="M 2078.910156 -730.070312 L -731.007812 757.699219 L 756.765625 3567.613281 L 3566.679688 2079.84375 Z M 2078.910156 -730.070312 "/>
<path fill-rule="evenodd" fill="rgb(46.531677%, 46.531677%, 46.531677%)" fill-opacity="1" d="M 2072.789062 -710.171875 L -711.109375 763.820312 L 762.886719 3547.71875 L 3546.78125 2073.722656 Z M 2072.789062 -710.171875 "/>
<path fill-rule="evenodd" fill="rgb(47.264099%, 47.264099%, 47.264099%)" fill-opacity="1" d="M 2066.660156 -690.28125 L -691.214844 769.941406 L 769.007812 3527.820312 L 3526.878906 2067.601562 Z M 2066.660156 -690.28125 "/>
<path fill-rule="evenodd" fill="rgb(47.996521%, 47.996521%, 47.996521%)" fill-opacity="1" d="M 2060.539062 -670.378906 L -671.316406 776.058594 L 775.128906 3507.925781 L 3506.988281 2061.480469 Z M 2060.539062 -670.378906 "/>
<path fill-rule="evenodd" fill="rgb(48.730469%, 48.730469%, 48.730469%)" fill-opacity="1" d="M 2054.421875 -650.480469 L -651.421875 782.179688 L 781.25 3488.027344 L 3487.089844 2055.359375 Z M 2054.421875 -650.480469 "/>
<path fill-rule="evenodd" fill="rgb(49.485779%, 49.485779%, 49.485779%)" fill-opacity="1" d="M 2048.300781 -630.589844 L -631.523438 788.308594 L 787.371094 3468.128906 L 3467.191406 2049.238281 Z M 2048.300781 -630.589844 "/>
<path fill-rule="evenodd" fill="rgb(50.193787%, 50.193787%, 50.193787%)" fill-opacity="1" d="M 2042.179688 -610.691406 L -611.628906 794.429688 L 793.492188 3448.234375 L 3447.300781 2043.117188 Z M 2042.179688 -610.691406 "/>
<path fill-rule="evenodd" fill="rgb(50.976562%, 50.976562%, 50.976562%)" fill-opacity="1" d="M 2036.058594 -590.789062 L -591.730469 800.550781 L 799.613281 3428.339844 L 3427.398438 2036.996094 Z M 2036.058594 -590.789062 "/>
<path fill-rule="evenodd" fill="rgb(51.756287%, 51.756287%, 51.756287%)" fill-opacity="1" d="M 2029.941406 -570.898438 L -571.835938 806.671875 L 805.734375 3408.441406 L 3407.511719 2030.875 Z M 2029.941406 -570.898438 "/>
<path fill-rule="evenodd" fill="rgb(52.34375%, 52.34375%, 52.34375%)" fill-opacity="1" d="M 2023.820312 -551 L -551.9375 812.789062 L 811.855469 3388.542969 L 3387.609375 2024.753906 Z M 2023.820312 -551 "/>
<path fill-rule="evenodd" fill="rgb(53.125%, 53.125%, 53.125%)" fill-opacity="1" d="M 2017.699219 -531.109375 L -532.039062 818.910156 L 817.976562 3368.648438 L 3367.710938 2018.632812 Z M 2017.699219 -531.109375 "/>
<path fill-rule="evenodd" fill="rgb(53.90625%, 53.90625%, 53.90625%)" fill-opacity="1" d="M 2011.578125 -511.210938 L -512.144531 825.03125 L 824.097656 3348.75 L 3347.808594 2012.511719 Z M 2011.578125 -511.210938 "/>
<path fill-rule="evenodd" fill="rgb(54.6875%, 54.6875%, 54.6875%)" fill-opacity="1" d="M 2005.449219 -491.308594 L -492.246094 831.148438 L 830.21875 3328.855469 L 3327.921875 2006.390625 Z M 2005.449219 -491.308594 "/>
<path fill-rule="evenodd" fill="rgb(55.46875%, 55.46875%, 55.46875%)" fill-opacity="1" d="M 1999.328125 -471.421875 L -472.351562 837.269531 L 836.339844 3308.957031 L 3308.019531 2000.269531 Z M 1999.328125 -471.421875 "/>
<path fill-rule="evenodd" fill="rgb(56.054688%, 56.054688%, 56.054688%)" fill-opacity="1" d="M 1993.210938 -451.519531 L -452.453125 843.390625 L 842.460938 3289.0625 L 3288.128906 1994.148438 Z M 1993.210938 -451.519531 "/>
<path fill-rule="evenodd" fill="rgb(56.834412%, 56.834412%, 56.834412%)" fill-opacity="1" d="M 1987.089844 -431.621094 L -432.558594 849.519531 L 848.578125 3269.164062 L 3268.230469 1988.027344 Z M 1987.089844 -431.621094 "/>
<path fill-rule="evenodd" fill="rgb(57.617188%, 57.617188%, 57.617188%)" fill-opacity="1" d="M 1980.96875 -411.730469 L -412.660156 855.640625 L 854.699219 3249.269531 L 3248.328125 1981.90625 Z M 1980.96875 -411.730469 "/>
<path fill-rule="evenodd" fill="rgb(58.396912%, 58.396912%, 58.396912%)" fill-opacity="1" d="M 1974.851562 -391.828125 L -392.765625 861.761719 L 860.820312 3229.371094 L 3228.441406 1975.785156 Z M 1974.851562 -391.828125 "/>
<path fill-rule="evenodd" fill="rgb(59.179688%, 59.179688%, 59.179688%)" fill-opacity="1" d="M 1968.730469 -371.929688 L -372.867188 867.878906 L 866.941406 3209.476562 L 3208.539062 1969.664062 Z M 1968.730469 -371.929688 "/>
<path fill-rule="evenodd" fill="rgb(59.764099%, 59.764099%, 59.764099%)" fill-opacity="1" d="M 1962.609375 -352.039062 L -352.972656 874 L 873.0625 3189.578125 L 3188.640625 1963.542969 Z M 1962.609375 -352.039062 "/>
<path fill-rule="evenodd" fill="rgb(60.546875%, 60.546875%, 60.546875%)" fill-opacity="1" d="M 1956.488281 -332.140625 L -333.074219 880.121094 L 879.183594 3169.679688 L 3168.75 1957.421875 Z M 1956.488281 -332.140625 "/>
<path fill-rule="evenodd" fill="rgb(61.326599%, 61.326599%, 61.326599%)" fill-opacity="1" d="M 1950.371094 -312.238281 L -313.179688 886.238281 L 885.304688 3149.785156 L 3148.851562 1951.300781 Z M 1950.371094 -312.238281 "/>
<path fill-rule="evenodd" fill="rgb(62.109375%, 62.109375%, 62.109375%)" fill-opacity="1" d="M 1944.238281 -292.351562 L -293.28125 892.359375 L 891.425781 3129.886719 L 3128.949219 1945.179688 Z M 1944.238281 -292.351562 "/>
<path fill-rule="evenodd" fill="rgb(62.693787%, 62.693787%, 62.693787%)" fill-opacity="1" d="M 1938.121094 -272.449219 L -273.386719 898.480469 L 897.546875 3109.992188 L 3109.058594 1939.058594 Z M 1938.121094 -272.449219 "/>
<path fill-rule="evenodd" fill="rgb(63.476562%, 63.476562%, 63.476562%)" fill-opacity="1" d="M 1932 -252.550781 L -253.488281 904.601562 L 903.667969 3090.09375 L 3089.160156 1932.9375 Z M 1932 -252.550781 "/>
<path fill-rule="evenodd" fill="rgb(64.256287%, 64.256287%, 64.256287%)" fill-opacity="1" d="M 1925.878906 -232.660156 L -233.589844 910.730469 L 909.789062 3070.199219 L 3069.261719 1926.816406 Z M 1925.878906 -232.660156 "/>
<path fill-rule="evenodd" fill="rgb(65.039062%, 65.039062%, 65.039062%)" fill-opacity="1" d="M 1919.761719 -212.761719 L -213.691406 916.851562 L 915.910156 3050.296875 L 3049.359375 1920.695312 Z M 1919.761719 -212.761719 "/>
<path fill-rule="evenodd" fill="rgb(65.429688%, 65.429688%, 65.429688%)" fill-opacity="1" d="M 1913.640625 -192.859375 L -193.796875 922.96875 L 922.03125 3030.402344 L 3029.46875 1914.574219 Z M 1913.640625 -192.859375 "/>
<path fill-rule="evenodd" fill="rgb(65.818787%, 65.818787%, 65.818787%)" fill-opacity="1" d="M 1907.519531 -172.960938 L -173.898438 929.089844 L 928.152344 3010.503906 L 3009.570312 1908.453125 Z M 1907.519531 -172.960938 "/>
<path fill-rule="evenodd" fill="rgb(66.209412%, 66.209412%, 66.209412%)" fill-opacity="1" d="M 1901.398438 -153.070312 L -154.003906 935.210938 L 934.273438 2990.609375 L 2989.671875 1902.332031 Z M 1901.398438 -153.070312 "/>
<path fill-rule="evenodd" fill="rgb(66.796875%, 66.796875%, 66.796875%)" fill-opacity="1" d="M 1895.28125 -133.171875 L -134.105469 941.328125 L 940.394531 2970.710938 L 2969.78125 1896.210938 Z M 1895.28125 -133.171875 "/>
<path fill-rule="evenodd" fill="rgb(67.1875%, 67.1875%, 67.1875%)" fill-opacity="1" d="M 1889.148438 -113.269531 L -114.210938 947.449219 L 946.515625 2950.816406 L 2949.878906 1890.089844 Z M 1889.148438 -113.269531 "/>
<path fill-rule="evenodd" fill="rgb(67.576599%, 67.576599%, 67.576599%)" fill-opacity="1" d="M 1883.03125 -93.378906 L -94.3125 953.570312 L 952.636719 2930.917969 L 2929.980469 1883.96875 Z M 1883.03125 -93.378906 "/>
<path fill-rule="evenodd" fill="rgb(67.96875%, 67.96875%, 67.96875%)" fill-opacity="1" d="M 1876.910156 -73.480469 L -74.414062 959.691406 L 958.757812 2911.023438 L 2910.089844 1877.847656 Z M 1876.910156 -73.480469 "/>
<path fill-rule="evenodd" fill="rgb(68.359375%, 68.359375%, 68.359375%)" fill-opacity="1" d="M 1870.789062 -53.578125 L -54.519531 965.820312 L 964.878906 2891.125 L 2890.191406 1871.726562 Z M 1870.789062 -53.578125 "/>
<path fill-rule="evenodd" fill="rgb(68.75%, 68.75%, 68.75%)" fill-opacity="1" d="M 1864.671875 -33.691406 L -34.621094 971.941406 L 971 2871.230469 L 2870.289062 1865.605469 Z M 1864.671875 -33.691406 "/>
<path fill-rule="evenodd" fill="rgb(69.334412%, 69.334412%, 69.334412%)" fill-opacity="1" d="M 1858.550781 -13.789062 L -14.726562 978.058594 L 977.121094 2851.332031 L 2850.398438 1859.484375 Z M 1858.550781 -13.789062 "/>
</g>
<path fill-rule="evenodd" fill="rgb(69.726562%, 69.726562%, 69.726562%)" fill-opacity="1" d="M 1852.429688 6.109375 L 5.171875 984.179688 L 983.242188 2831.4375 L 2830.5 1853.363281 Z M 1852.429688 6.109375 "/>
<path fill-rule="evenodd" fill="rgb(70.117188%, 70.117188%, 70.117188%)" fill-opacity="1" d="M 1846.308594 26 L 25.066406 990.300781 L 989.363281 2811.539062 L 2810.601562 1847.242188 Z M 1846.308594 26 "/>
<path fill-rule="evenodd" fill="rgb(70.506287%, 70.506287%, 70.506287%)" fill-opacity="1" d="M 1840.191406 45.898438 L 44.964844 996.421875 L 995.484375 2791.644531 L 2790.710938 1841.121094 Z M 1840.191406 45.898438 "/>
<path fill-rule="evenodd" fill="rgb(70.896912%, 70.896912%, 70.896912%)" fill-opacity="1" d="M 1834.058594 65.800781 L 64.859375 1002.539062 L 1001.609375 2771.746094 L 2770.808594 1835 Z M 1834.058594 65.800781 "/>
<path fill-rule="evenodd" fill="rgb(71.484375%, 71.484375%, 71.484375%)" fill-opacity="1" d="M 1827.941406 85.691406 L 84.757812 1008.660156 L 1007.730469 2751.847656 L 2750.910156 1828.878906 Z M 1827.941406 85.691406 "/>
<path fill-rule="evenodd" fill="rgb(71.875%, 71.875%, 71.875%)" fill-opacity="1" d="M 1821.820312 105.589844 L 104.652344 1014.78125 L 1013.851562 2731.953125 L 2731.019531 1822.761719 Z M 1821.820312 105.589844 "/>
<path fill-rule="evenodd" fill="rgb(72.264099%, 72.264099%, 72.264099%)" fill-opacity="1" d="M 1815.699219 125.488281 L 124.550781 1020.898438 L 1019.96875 2712.054688 L 2711.121094 1816.640625 Z M 1815.699219 125.488281 "/>
<path fill-rule="evenodd" fill="rgb(72.65625%, 72.65625%, 72.65625%)" fill-opacity="1" d="M 1809.578125 145.378906 L 144.445312 1027.03125 L 1026.089844 2692.160156 L 2691.21875 1810.519531 Z M 1809.578125 145.378906 "/>
<path fill-rule="evenodd" fill="rgb(73.046875%, 73.046875%, 73.046875%)" fill-opacity="1" d="M 1803.460938 165.28125 L 164.34375 1033.148438 L 1032.210938 2672.261719 L 2671.328125 1804.398438 Z M 1803.460938 165.28125 "/>
<path fill-rule="evenodd" fill="rgb(73.631287%, 73.631287%, 73.631287%)" fill-opacity="1" d="M 1797.339844 185.179688 L 184.242188 1039.269531 L 1038.328125 2652.367188 L 2651.429688 1798.269531 Z M 1797.339844 185.179688 "/>
<path fill-rule="evenodd" fill="rgb(74.021912%, 74.021912%, 74.021912%)" fill-opacity="1" d="M 1791.21875 205.070312 L 204.136719 1045.390625 L 1044.449219 2632.46875 L 2631.53125 1792.148438 Z M 1791.21875 205.070312 "/>
<path fill-rule="evenodd" fill="rgb(74.414062%, 74.414062%, 74.414062%)" fill-opacity="1" d="M 1785.101562 224.96875 L 224.035156 1051.511719 L 1050.570312 2612.574219 L 2611.640625 1786.03125 Z M 1785.101562 224.96875 "/>
<path fill-rule="evenodd" fill="rgb(74.804688%, 74.804688%, 74.804688%)" fill-opacity="1" d="M 1778.980469 244.871094 L 243.929688 1057.628906 L 1056.691406 2592.675781 L 2591.738281 1779.910156 Z M 1778.980469 244.871094 "/>
<path fill-rule="evenodd" fill="rgb(75.193787%, 75.193787%, 75.193787%)" fill-opacity="1" d="M 1772.859375 264.761719 L 263.828125 1063.75 L 1062.820312 2572.777344 L 2571.839844 1773.789062 Z M 1772.859375 264.761719 "/>
<path fill-rule="evenodd" fill="rgb(75.584412%, 75.584412%, 75.584412%)" fill-opacity="1" d="M 1766.730469 284.660156 L 283.722656 1069.871094 L 1068.941406 2552.882812 L 2551.949219 1767.671875 Z M 1766.730469 284.660156 "/>
<path fill-rule="evenodd" fill="rgb(76.171875%, 76.171875%, 76.171875%)" fill-opacity="1" d="M 1760.609375 304.558594 L 303.621094 1075.988281 L 1075.058594 2532.984375 L 2532.050781 1761.550781 Z M 1760.609375 304.558594 "/>
<path fill-rule="evenodd" fill="rgb(76.5625%, 76.5625%, 76.5625%)" fill-opacity="1" d="M 1754.488281 324.449219 L 323.519531 1082.109375 L 1081.179688 2513.089844 L 2512.148438 1755.429688 Z M 1754.488281 324.449219 "/>
<path fill-rule="evenodd" fill="rgb(76.951599%, 76.951599%, 76.951599%)" fill-opacity="1" d="M 1748.371094 344.351562 L 343.414062 1088.238281 L 1087.300781 2493.191406 L 2492.261719 1749.308594 Z M 1748.371094 344.351562 "/>
<path fill-rule="evenodd" fill="rgb(77.34375%, 77.34375%, 77.34375%)" fill-opacity="1" d="M 1742.25 364.25 L 363.3125 1094.359375 L 1093.421875 2473.296875 L 2472.359375 1743.191406 Z M 1742.25 364.25 "/>
<path fill-rule="evenodd" fill="rgb(77.734375%, 77.734375%, 77.734375%)" fill-opacity="1" d="M 1736.128906 384.140625 L 383.207031 1100.480469 L 1099.539062 2453.398438 L 2452.460938 1737.058594 Z M 1736.128906 384.140625 "/>
<path fill-rule="evenodd" fill="rgb(78.318787%, 78.318787%, 78.318787%)" fill-opacity="1" d="M 1730.011719 404.039062 L 403.105469 1106.601562 L 1105.660156 2433.503906 L 2432.570312 1730.941406 Z M 1730.011719 404.039062 "/>
<path fill-rule="evenodd" fill="rgb(78.709412%, 78.709412%, 78.709412%)" fill-opacity="1" d="M 1723.890625 423.941406 L 423 1112.71875 L 1111.78125 2413.605469 L 2412.671875 1724.820312 Z M 1723.890625 423.941406 "/>
<path fill-rule="evenodd" fill="rgb(79.101562%, 79.101562%, 79.101562%)" fill-opacity="1" d="M 1717.769531 443.828125 L 442.898438 1118.839844 L 1117.910156 2393.710938 L 2392.769531 1718.699219 Z M 1717.769531 443.828125 "/>
<path fill-rule="evenodd" fill="rgb(79.492188%, 79.492188%, 79.492188%)" fill-opacity="1" d="M 1711.640625 463.730469 L 462.792969 1124.960938 L 1124.03125 2373.8125 L 2372.878906 1712.578125 Z M 1711.640625 463.730469 "/>
<path fill-rule="evenodd" fill="rgb(79.881287%, 79.881287%, 79.881287%)" fill-opacity="1" d="M 1705.519531 483.628906 L 482.691406 1131.078125 L 1130.148438 2353.914062 L 2352.980469 1706.460938 Z M 1705.519531 483.628906 "/>
<path fill-rule="evenodd" fill="rgb(80.271912%, 80.271912%, 80.271912%)" fill-opacity="1" d="M 1699.398438 503.519531 L 502.589844 1137.199219 L 1136.269531 2334.019531 L 2333.078125 1700.339844 Z M 1699.398438 503.519531 "/>
<path fill-rule="evenodd" fill="rgb(80.859375%, 80.859375%, 80.859375%)" fill-opacity="1" d="M 1693.28125 523.421875 L 522.484375 1143.320312 L 1142.390625 2314.121094 L 2313.191406 1694.21875 Z M 1693.28125 523.421875 "/>
<path fill-rule="evenodd" fill="rgb(81.25%, 81.25%, 81.25%)" fill-opacity="1" d="M 1687.160156 543.320312 L 542.382812 1149.449219 L 1148.511719 2294.226562 L 2293.289062 1688.101562 Z M 1687.160156 543.320312 "/>
<path fill-rule="evenodd" fill="rgb(81.639099%, 81.639099%, 81.639099%)" fill-opacity="1" d="M 1681.039062 563.210938 L 562.277344 1155.570312 L 1154.628906 2274.328125 L 2273.390625 1681.980469 Z M 1681.039062 563.210938 "/>
<path fill-rule="evenodd" fill="rgb(82.03125%, 82.03125%, 82.03125%)" fill-opacity="1" d="M 1674.921875 583.109375 L 582.175781 1161.691406 L 1160.75 2254.433594 L 2253.5 1675.851562 Z M 1674.921875 583.109375 "/>
<path fill-rule="evenodd" fill="rgb(82.421875%, 82.421875%, 82.421875%)" fill-opacity="1" d="M 1668.800781 603.011719 L 602.070312 1167.808594 L 1166.871094 2234.535156 L 2233.601562 1669.730469 Z M 1668.800781 603.011719 "/>
<path fill-rule="evenodd" fill="rgb(83.006287%, 83.006287%, 83.006287%)" fill-opacity="1" d="M 1662.679688 622.898438 L 621.96875 1173.929688 L 1172.988281 2214.640625 L 2213.699219 1663.609375 Z M 1662.679688 622.898438 "/>
<path fill-rule="evenodd" fill="rgb(83.396912%, 83.396912%, 83.396912%)" fill-opacity="1" d="M 1656.558594 642.800781 L 641.863281 1180.050781 L 1179.121094 2194.742188 L 2193.808594 1657.488281 Z M 1656.558594 642.800781 "/>
<path fill-rule="evenodd" fill="rgb(83.789062%, 83.789062%, 83.789062%)" fill-opacity="1" d="M 1650.429688 662.699219 L 661.761719 1186.171875 L 1185.238281 2174.847656 L 2173.910156 1651.371094 Z M 1650.429688 662.699219 "/>
<path fill-rule="evenodd" fill="rgb(84.179688%, 84.179688%, 84.179688%)" fill-opacity="1" d="M 1644.308594 682.589844 L 681.65625 1192.289062 L 1191.359375 2154.949219 L 2154.011719 1645.25 Z M 1644.308594 682.589844 "/>
<path fill-rule="evenodd" fill="rgb(84.568787%, 84.568787%, 84.568787%)" fill-opacity="1" d="M 1638.191406 702.488281 L 701.554688 1198.410156 L 1197.480469 2135.050781 L 2134.121094 1639.128906 Z M 1638.191406 702.488281 "/>
<path fill-rule="evenodd" fill="rgb(85.15625%, 85.15625%, 85.15625%)" fill-opacity="1" d="M 1632.070312 722.390625 L 721.449219 1204.539062 L 1203.601562 2115.15625 L 2114.21875 1633.011719 Z M 1632.070312 722.390625 "/>
<path fill-rule="evenodd" fill="rgb(85.546875%, 85.546875%, 85.546875%)" fill-opacity="1" d="M 1625.949219 742.28125 L 741.347656 1210.660156 L 1209.71875 2095.257812 L 2094.320312 1626.890625 Z M 1625.949219 742.28125 "/>
<path fill-rule="evenodd" fill="rgb(85.9375%, 85.9375%, 85.9375%)" fill-opacity="1" d="M 1619.828125 762.179688 L 761.246094 1216.78125 L 1215.839844 2075.363281 L 2074.429688 1620.769531 Z M 1619.828125 762.179688 "/>
<path fill-rule="evenodd" fill="rgb(86.326599%, 86.326599%, 86.326599%)" fill-opacity="1" d="M 1613.710938 782.078125 L 781.140625 1222.898438 L 1221.960938 2055.464844 L 2054.53125 1614.640625 Z M 1613.710938 782.078125 "/>
<path fill-rule="evenodd" fill="rgb(86.71875%, 86.71875%, 86.71875%)" fill-opacity="1" d="M 1607.589844 801.96875 L 801.039062 1229.019531 L 1228.078125 2035.570312 L 2034.628906 1608.519531 Z M 1607.589844 801.96875 "/>
<path fill-rule="evenodd" fill="rgb(87.109375%, 87.109375%, 87.109375%)" fill-opacity="1" d="M 1601.46875 821.871094 L 820.933594 1235.140625 L 1234.199219 2015.671875 L 2014.738281 1602.398438 Z M 1601.46875 821.871094 "/>
<path fill-rule="evenodd" fill="rgb(87.693787%, 87.693787%, 87.693787%)" fill-opacity="1" d="M 1595.351562 841.769531 L 840.832031 1241.261719 L 1240.328125 1995.773438 L 1994.839844 1596.28125 Z M 1595.351562 841.769531 "/>
<path fill-rule="evenodd" fill="rgb(88.084412%, 88.084412%, 88.084412%)" fill-opacity="1" d="M 1589.21875 861.660156 L 860.726562 1247.378906 L 1246.449219 1975.878906 L 1974.941406 1590.160156 Z M 1589.21875 861.660156 "/>
<path fill-rule="evenodd" fill="rgb(88.476562%, 88.476562%, 88.476562%)" fill-opacity="1" d="M 1583.101562 881.558594 L 880.625 1253.5 L 1252.570312 1955.980469 L 1955.050781 1584.039062 Z M 1583.101562 881.558594 "/>
<path fill-rule="evenodd" fill="rgb(88.867188%, 88.867188%, 88.867188%)" fill-opacity="1" d="M 1576.980469 901.460938 L 900.519531 1259.621094 L 1258.691406 1936.085938 L 1935.148438 1577.921875 Z M 1576.980469 901.460938 "/>
<path fill-rule="evenodd" fill="rgb(89.256287%, 89.256287%, 89.256287%)" fill-opacity="1" d="M 1570.859375 921.351562 L 920.417969 1265.75 L 1264.808594 1916.1875 L 1915.25 1571.800781 Z M 1570.859375 921.351562 "/>
<path fill-rule="evenodd" fill="rgb(89.84375%, 89.84375%, 89.84375%)" fill-opacity="1" d="M 1564.738281 941.25 L 940.316406 1271.871094 L 1270.929688 1896.292969 L 1895.359375 1565.679688 Z M 1564.738281 941.25 "/>
<path fill-rule="evenodd" fill="rgb(90.234375%, 90.234375%, 90.234375%)" fill-opacity="1" d="M 1558.621094 961.148438 L 960.210938 1277.988281 L 1277.050781 1876.394531 L 1875.460938 1559.558594 Z M 1558.621094 961.148438 "/>
<path fill-rule="evenodd" fill="rgb(90.625%, 90.625%, 90.625%)" fill-opacity="1" d="M 1552.5 981.039062 L 980.109375 1284.109375 L 1283.171875 1856.496094 L 1855.558594 1553.429688 Z M 1552.5 981.039062 "/>
<path fill-rule="evenodd" fill="rgb(91.014099%, 91.014099%, 91.014099%)" fill-opacity="1" d="M 1546.378906 1000.941406 L 1000 1290.230469 L 1289.289062 1836.601562 L 1835.671875 1547.308594 Z M 1546.378906 1000.941406 "/>
<path fill-rule="evenodd" fill="rgb(91.40625%, 91.40625%, 91.40625%)" fill-opacity="1" d="M 1540.261719 1020.839844 L 1019.898438 1296.351562 L 1295.410156 1816.710938 L 1815.769531 1541.191406 Z M 1540.261719 1020.839844 "/>
<path fill-rule="evenodd" fill="rgb(91.796875%, 91.796875%, 91.796875%)" fill-opacity="1" d="M 1534.140625 1040.730469 L 1039.800781 1302.46875 L 1301.539062 1796.808594 L 1795.871094 1535.070312 Z M 1534.140625 1040.730469 "/>
<path fill-rule="evenodd" fill="rgb(92.381287%, 92.381287%, 92.381287%)" fill-opacity="1" d="M 1528.011719 1060.628906 L 1059.691406 1308.589844 L 1307.660156 1776.910156 L 1775.980469 1528.949219 Z M 1528.011719 1060.628906 "/>
<path fill-rule="evenodd" fill="rgb(92.771912%, 92.771912%, 92.771912%)" fill-opacity="1" d="M 1521.890625 1080.53125 L 1079.589844 1314.710938 L 1313.78125 1757.019531 L 1756.078125 1522.828125 Z M 1521.890625 1080.53125 "/>
<path fill-rule="evenodd" fill="rgb(93.164062%, 93.164062%, 93.164062%)" fill-opacity="1" d="M 1515.769531 1100.421875 L 1099.488281 1320.828125 L 1319.898438 1737.121094 L 1736.179688 1516.710938 Z M 1515.769531 1100.421875 "/>
<path fill-rule="evenodd" fill="rgb(93.554688%, 93.554688%, 93.554688%)" fill-opacity="1" d="M 1509.648438 1120.320312 L 1119.378906 1326.960938 L 1326.019531 1717.21875 L 1716.289062 1510.589844 Z M 1509.648438 1120.320312 "/>
<path fill-rule="evenodd" fill="rgb(93.943787%, 93.943787%, 93.943787%)" fill-opacity="1" d="M 1503.53125 1140.21875 L 1139.28125 1333.078125 L 1332.140625 1697.320312 L 1696.390625 1504.46875 Z M 1503.53125 1140.21875 "/>
<path fill-rule="evenodd" fill="rgb(94.53125%, 94.53125%, 94.53125%)" fill-opacity="1" d="M 1497.410156 1160.109375 L 1159.179688 1339.199219 L 1338.261719 1677.429688 L 1676.488281 1498.339844 Z M 1497.410156 1160.109375 "/>
<path fill-rule="evenodd" fill="rgb(94.921875%, 94.921875%, 94.921875%)" fill-opacity="1" d="M 1491.289062 1180.011719 L 1179.078125 1345.320312 L 1344.378906 1657.53125 L 1656.601562 1492.21875 Z M 1491.289062 1180.011719 "/>
<path fill-rule="evenodd" fill="rgb(95.3125%, 95.3125%, 95.3125%)" fill-opacity="1" d="M 1485.171875 1199.910156 L 1198.96875 1351.441406 L 1350.5 1637.640625 L 1636.699219 1486.101562 Z M 1485.171875 1199.910156 "/>
<path fill-rule="evenodd" fill="rgb(95.701599%, 95.701599%, 95.701599%)" fill-opacity="1" d="M 1479.050781 1219.800781 L 1218.871094 1357.558594 L 1356.628906 1617.738281 L 1616.800781 1479.980469 Z M 1479.050781 1219.800781 "/>
<path fill-rule="evenodd" fill="rgb(96.09375%, 96.09375%, 96.09375%)" fill-opacity="1" d="M 1472.921875 1239.699219 L 1238.761719 1363.679688 L 1362.75 1597.839844 L 1596.910156 1473.859375 Z M 1472.921875 1239.699219 "/>
<path fill-rule="evenodd" fill="rgb(96.679688%, 96.679688%, 96.679688%)" fill-opacity="1" d="M 1466.800781 1259.601562 L 1258.660156 1369.800781 L 1368.871094 1577.941406 L 1577.011719 1467.738281 Z M 1466.800781 1259.601562 "/>
<path fill-rule="evenodd" fill="rgb(97.068787%, 97.068787%, 97.068787%)" fill-opacity="1" d="M 1460.679688 1279.488281 L 1278.558594 1375.921875 L 1374.988281 1558.050781 L 1557.109375 1461.621094 Z M 1460.679688 1279.488281 "/>
<path fill-rule="evenodd" fill="rgb(97.459412%, 97.459412%, 97.459412%)" fill-opacity="1" d="M 1454.558594 1299.390625 L 1298.460938 1382.039062 L 1381.109375 1538.148438 L 1537.21875 1455.5 Z M 1454.558594 1299.390625 "/>
<path fill-rule="evenodd" fill="rgb(97.851562%, 97.851562%, 97.851562%)" fill-opacity="1" d="M 1448.441406 1319.289062 L 1318.351562 1388.171875 L 1387.230469 1518.261719 L 1517.320312 1449.378906 Z M 1448.441406 1319.289062 "/>
<path fill-rule="evenodd" fill="rgb(98.242188%, 98.242188%, 98.242188%)" fill-opacity="1" d="M 1442.320312 1339.179688 L 1338.25 1394.289062 L 1393.351562 1498.359375 L 1497.421875 1443.261719 Z M 1442.320312 1339.179688 "/>
<path fill-rule="evenodd" fill="rgb(98.631287%, 98.631287%, 98.631287%)" fill-opacity="1" d="M 1436.199219 1359.078125 L 1358.140625 1400.410156 L 1399.46875 1478.460938 L 1477.53125 1437.128906 Z M 1436.199219 1359.078125 "/>
<path fill-rule="evenodd" fill="rgb(99.21875%, 99.21875%, 99.21875%)" fill-opacity="1" d="M 1430.078125 1378.980469 L 1378.039062 1406.53125 L 1405.589844 1458.558594 L 1457.628906 1431.011719 Z M 1430.078125 1378.980469 "/>
<path fill-rule="evenodd" fill="rgb(99.609375%, 99.609375%, 99.609375%)" fill-opacity="1" d="M 1423.960938 1398.871094 L 1397.941406 1412.648438 L 1411.710938 1438.671875 L 1437.730469 1424.890625 Z M 1423.960938 1398.871094 "/>
<path fill-rule="evenodd" fill="rgb(1.997375%, 1.997375%, 1.997375%)" fill-opacity="1" d="M 1450.808594 2162.222656 C 1439.46875 2143.847656 1440.289062 2142.425781 1408.28125 2135.847656 L 1372.390625 2176.160156 C 1402.609375 2197.046875 1431.558594 2189.71875 1450.808594 2162.222656 Z M 1854.421875 1966.859375 C 1849.5 2022.824219 1852.351562 2036.214844 1805.359375 2085.507812 C 1789.859375 2101.769531 1795.429688 2091.039062 1786.898438 2112.460938 C 1832.710938 2107.949219 1855.460938 2087.355469 1878.121094 2057.675781 C 1875.351562 2026.007812 1869.058594 1987.351562 1854.421875 1966.859375 Z M 1854.421875 1966.859375 C 1851.21875 1937.316406 1843.28125 1908.320312 1820.050781 1892.6875 C 1816.730469 1925.113281 1837.511719 1947.425781 1854.421875 1966.859375 Z M 1334.488281 1740.921875 C 1197.851562 1753.398438 1088.859375 1732.269531 1014.859375 1775.898438 C 974.710938 1799.570312 966.695312 1837.921875 938.128906 1880.234375 C 909.121094 1923.195312 894.625 1968.277344 907.695312 2035.609375 C 920.496094 2101.578125 946.605469 2102.507812 987.757812 2136.609375 C 1026.238281 2168.492188 1025.359375 2203.660156 1094.5 2211.746094 C 1149.621094 2218.191406 1216.03125 2212.835938 1264.730469 2200.117188 C 1318.148438 2186.171875 1277.160156 2195.566406 1364.859375 2113.941406 C 1353.828125 2084.726562 1344.308594 2067.585938 1310.699219 2088.714844 L 1305.910156 2074.941406 C 1302.941406 2065.667969 1307 2072.738281 1303.730469 2067.578125 C 1285.191406 2084.328125 1220.648438 2190.519531 1174.71875 2125.035156 C 1180.050781 2101.035156 1221.351562 2088.175781 1245.511719 2075.949219 C 1277.769531 2059.625 1282.929688 2042.285156 1311.589844 2015.859375 C 1304.230469 1970.652344 1295.621094 1957.578125 1295.609375 1903.359375 C 1204.320312 1916.621094 1181.378906 1999.757812 1147.921875 2047.183594 C 1125.230469 2018.878906 1121.019531 2004.878906 1095.109375 1980.816406 C 1068.800781 1956.378906 1047.230469 1954.246094 1012.621094 1940.011719 C 1030.710938 1873.039062 1087.648438 1853.078125 1164.789062 1834.980469 C 1311.191406 1800.609375 1290.589844 1814.980469 1334.488281 1740.921875 Z M 1791.191406 1730.46875 C 1765.238281 1723.269531 1761.351562 1711.179688 1736.050781 1705.25 C 1711.390625 1699.46875 1744.328125 1710.671875 1719.070312 1702.550781 C 1686.960938 1692.21875 1607.738281 1595.820312 1458.171875 1661.738281 C 1210.339844 1770.980469 1290.929688 2271.433594 1714.140625 2126.566406 C 1769.929688 2107.46875 1817.800781 2035.289062 1822.378906 1998.710938 C 1825.351562 1975.089844 1813.941406 1948.257812 1801.289062 1929.289062 C 1795.550781 1920.695312 1796.609375 1922.066406 1791.609375 1917.152344 L 1655.128906 1984.386719 C 1635.21875 1992.792969 1619.710938 1997.886719 1600.109375 1987.984375 C 1619.359375 1961.378906 1646.460938 1963.550781 1677.46875 1949.714844 C 1639.230469 1949.027344 1602.398438 1956.691406 1592.929688 1918.285156 L 1632.648438 1913.757812 C 1631.238281 1912.925781 1628.820312 1908.886719 1628.160156 1910.261719 L 1612.210938 1893.148438 C 1687.929688 1883.953125 1783.570312 1972.417969 1823.101562 1838.183594 C 1849.851562 1747.320312 1819.441406 1626.039062 1763.730469 1590.171875 C 1746.828125 1601.371094 1752.339844 1598.351562 1737.921875 1620.691406 C 1726.851562 1637.828125 1721.988281 1644.441406 1712.898438 1662.230469 C 1741.660156 1671.449219 1778.921875 1702 1791.191406 1730.46875 Z M 938.359375 1674.351562 C 964.144531 1639.28125 979.769531 1662.609375 1011.148438 1646.480469 L 1011.878906 1625.558594 C 1004.191406 1620.980469 1010.25 1622.601562 995.976562 1619.75 C 892.769531 1599.101562 917.105469 1749.761719 969.195312 1779.109375 C 994.03125 1769.46875 1013.171875 1756.550781 1028.738281 1739.261719 C 988.757812 1733.199219 973.800781 1762.570312 943.148438 1730.109375 C 974.269531 1691.789062 1022.800781 1746.621094 1034.679688 1684.851562 C 1010.710938 1679.449219 1009.148438 1682.378906 983.050781 1683.128906 C 944.429688 1684.230469 948.113281 1680.5 938.359375 1674.351562 Z M 1059.800781 1669.800781 C 1061.191406 1666.699219 1074.980469 1682.039062 1061.960938 1645.460938 C 1057.699219 1633.5 1050.28125 1631.660156 1049.761719 1629.269531 C 1049.269531 1627 1047.128906 1627.128906 1045.859375 1626 C 1031.960938 1649.839844 1043.570312 1659.070312 1059.800781 1669.800781 Z M 1410.828125 1517.128906 C 1319.179688 1529.390625 1291.230469 1513.171875 1214.378906 1501.46875 C 1252.351562 1527.558594 1353.320312 1563.980469 1395.78125 1536.359375 C 1421.300781 1519.75 1397.738281 1539.191406 1410.828125 1517.128906 Z M 1048.351562 1594.351562 C 1028.550781 1551.878906 1003.148438 1545.160156 982.296875 1507.980469 C 958.746094 1466 960.152344 1449.96875 946.578125 1418.550781 L 941.316406 1410.269531 C 926.996094 1424.808594 923.480469 1448.679688 930.589844 1476.46875 C 937.816406 1504.699219 951.347656 1500.828125 968.722656 1514.519531 C 990.4375 1531.609375 1009.039062 1574.519531 1048.351562 1594.351562 Z M 2271.339844 1381.160156 C 2249.351562 1373.410156 2254.898438 1382.910156 2245.171875 1395.570312 C 2250.039062 1412.921875 2256.328125 1426.101562 2274.960938 1432.980469 C 2276.050781 1425.871094 2278.390625 1409.640625 2278.011719 1402.550781 C 2275.921875 1363.941406 2279.941406 1395.429688 2271.339844 1381.160156 Z M 2376.171875 1390.308594 C 2378.199219 1386.589844 2386.53125 1397.601562 2382.398438 1363.871094 C 2380.539062 1348.699219 2374.871094 1344.179688 2368.800781 1338.378906 Z M 2264.78125 1479.230469 C 2264.941406 1426.03125 2224.238281 1453.671875 2224.820312 1379.738281 C 2317.289062 1318.851562 2302.550781 1393.109375 2299.480469 1439.691406 C 2380.769531 1428.808594 2352.378906 1404.351562 2348.121094 1352.949219 C 2343.371094 1295.511719 2385.230469 1333.5 2358.449219 1289.910156 C 2340.25 1260.269531 2152.929688 1277.921875 2126.878906 1278.609375 C 2095.851562 1380.820312 2181.21875 1513.171875 2264.78125 1479.230469 Z M 1966.738281 1236.96875 C 1915.480469 1236.609375 1863.730469 1233.878906 1812.628906 1232.421875 C 1763.148438 1231.011719 1625.710938 1189.128906 1662.570312 1378.78125 C 1672.660156 1430.71875 1691.039062 1448.320312 1708.421875 1485.25 L 1737.179688 1474.660156 C 1746.351562 1473.089844 1760.421875 1473.511719 1770.558594 1473.078125 C 1841.890625 1470.109375 1886.160156 1443.5 1973.121094 1451.570312 C 1945.230469 1253.640625 1970.378906 1340.148438 1966.738281 1236.96875 Z M 1603.390625 1334.898438 C 1600.730469 1443.03125 1580.25 1394.730469 1543.738281 1468.140625 C 1519.609375 1516.671875 1529.261719 1585.140625 1466.609375 1581.171875 C 1466.699219 1556.300781 1478.601562 1557.601562 1494.75 1530.839844 C 1506.058594 1512.089844 1508.519531 1498.421875 1516.160156 1482.160156 C 1488.671875 1486.441406 1446.519531 1542.789062 1400.390625 1562.179688 C 1287.691406 1609.550781 1153.941406 1481.078125 1115.800781 1465.089844 C 1084.328125 1451.910156 1001.371094 1420.058594 969.277344 1414.570312 C 985.984375 1472.480469 1017.28125 1513.789062 1049.21875 1552.421875 C 1093.660156 1606.148438 1086.539062 1636.539062 1117.289062 1692.160156 C 1138.449219 1695.371094 1288.230469 1696.648438 1310.339844 1693.96875 C 1365.089844 1687.320312 1402.429688 1663.089844 1446.960938 1643.210938 C 1610.371094 1570.28125 1676.691406 1699.929688 1710.148438 1551.078125 C 1743.199219 1554.738281 1726.351562 1582.761719 1736.390625 1559.589844 C 1736.941406 1558.320312 1739.058594 1560.898438 1740.5 1561.210938 C 1740.140625 1560.441406 1726.628906 1525.421875 1725.761719 1524.191406 C 1712.929688 1506.109375 1712.339844 1517.871094 1693.820312 1500.160156 C 1628.210938 1437.421875 1634.429688 1324.308594 1650.449219 1250.238281 C 1633.140625 1261.128906 1605.210938 1301.550781 1600.578125 1319.320312 C 1585.328125 1323.550781 1592.96875 1323.078125 1580.628906 1320.898438 C 1576.289062 1303.050781 1629.171875 1191.171875 1596.460938 1144.101562 C 1579.460938 1184.351562 1604.621094 1228.28125 1568.578125 1261.621094 C 1554.730469 1231.238281 1574.230469 1149.570312 1577.039062 1109.871094 C 1554.949219 1119.800781 1557.429688 1127.21875 1527.949219 1123.160156 C 1532.019531 1107.378906 1538.988281 1111.460938 1544.988281 1093.230469 C 1554.910156 1063.121094 1539.960938 1002.910156 1527.929688 976.070312 C 1506.730469 928.808594 1485.359375 893.910156 1439.941406 878.828125 C 1461.941406 986.578125 1473.839844 1161.851562 1387.371094 1206.980469 C 1380.441406 1192.351562 1358.761719 1039.089844 1283.449219 1004.648438 C 1309.128906 1088.421875 1322.050781 1094.511719 1320.148438 1203.121094 C 1280.941406 1182.800781 1218.75 1075.46875 1137.558594 1034.839844 C 1131.800781 1098.578125 1152.539062 1138.308594 1167.109375 1191.210938 C 1099.398438 1179.78125 1090.191406 1152.601562 1046.851562 1137.75 C 1070.429688 1205.089844 1101.148438 1247.5 1118.148438 1291.019531 L 1096.269531 1297.839844 C 1086.628906 1301.070312 1086.769531 1300.960938 1072.21875 1306.621094 C 1059.378906 1281.011719 1046.480469 1270.421875 1011.628906 1264.671875 C 961.246094 1326.871094 1021.621094 1405.261719 1052.828125 1429.949219 C 1061.320312 1426.769531 1075.488281 1419.359375 1077.140625 1413.078125 C 1077.699219 1410.949219 1079.441406 1410.671875 1080.710938 1409.589844 C 1118.320312 1463.160156 1302.890625 1502.53125 1380.261719 1498.410156 C 1436.230469 1495.441406 1491.21875 1474.328125 1523.640625 1448.058594 C 1598.441406 1387.429688 1560.941406 1346.398438 1603.390625 1334.898438 Z M 1570.640625 237.050781 C 1583.878906 237.191406 1574.410156 235.351562 1582.410156 239.949219 C 1574.578125 250.28125 1588.980469 239.441406 1561.851562 266.058594 C 1478.828125 347.511719 1466.171875 462.089844 1459.921875 575.28125 L 1488.828125 548.730469 C 1597.300781 428.589844 1861.160156 388.480469 1965.941406 482.550781 L 1917.179688 510.679688 C 1817.710938 568.96875 1713.578125 719.859375 1692.441406 810.761719 C 1776.609375 784.699219 1881.28125 768.121094 1964.5 808.859375 C 1941.078125 858.761719 1718.910156 992.011719 1725.671875 1057.070312 L 1769.789062 1060.148438 C 1784.851562 1058.441406 1796.96875 1055.890625 1812.789062 1054.921875 C 1841.75 1053.140625 1869.609375 1052.960938 1893.519531 1065.761719 C 1819.371094 1115.351562 1786.648438 1123.949219 1705.148438 1193.449219 C 1726.878906 1205.191406 1788.261719 1205.789062 1812.441406 1206.789062 C 1941.820312 1212.171875 2003.058594 1196.921875 2126.140625 1241.851562 C 2194.238281 1266.71875 2279.148438 1229.300781 2348.53125 1256.941406 C 2389 1273.058594 2407.800781 1378.800781 2403.53125 1430.050781 C 2382.738281 1442.609375 2356.988281 1451.128906 2329.121094 1459.011719 C 2264.191406 1477.378906 2304.871094 1476.980469 2271.828125 1499.28125 C 2209.378906 1541.441406 2194.429688 1454.171875 2123.621094 1468.921875 C 2004.039062 1493.839844 1879.640625 1477.53125 1756.089844 1498.429688 C 1747.71875 1547.050781 1764.359375 1561.398438 1790.210938 1592.019531 C 1880.660156 1699.160156 1848.761719 1746.648438 1885.011719 1775.921875 C 1909.570312 1795.75 1935.230469 1806.75 1962.660156 1830.660156 C 2060.738281 1916.152344 2146.820312 2013.347656 2147.179688 2211.007812 C 2148.011719 2662.316406 1593.589844 2790.675781 1644.128906 2524.15625 C 1673.480469 2369.34375 1894.46875 2422.425781 1968.691406 2304.53125 C 2003.871094 2248.644531 2014.039062 2159.390625 1996.039062 2083.160156 C 1982.929688 2027.625 1936.449219 1936.21875 1891.671875 1920.636719 C 1896.589844 1962.917969 1935.730469 2022.28125 1946.550781 2076.894531 C 1960.191406 2145.699219 1939.269531 2205.691406 1886.089844 2222.488281 C 1811.609375 2246.019531 1768.160156 2170.753906 1733.75 2163.386719 C 1723.890625 2161.277344 1586.570312 2183.925781 1539.890625 2182.402344 C 1550.160156 2264.539062 1533.980469 2298.230469 1447.359375 2284.378906 C 1374.058594 2272.652344 1376.609375 2224.871094 1345.550781 2191.890625 C 1286.351562 2223.855469 1229.789062 2248.941406 1143.339844 2247.710938 C 1036.589844 2246.1875 1021.351562 2216.242188 969.703125 2161.820312 C 934.617188 2124.851562 924.214844 2146.054688 899.179688 2099.957031 C 880.835938 2066.175781 873.597656 2040.039062 874.648438 1994.867188 C 876.699219 1906.660156 911.878906 1867.101562 943.273438 1806.769531 C 919.191406 1766.261719 889.933594 1732.949219 901.914062 1662.839844 C 917.957031 1569.019531 978.246094 1598.421875 1001.5 1594.859375 C 996.414062 1580.5 975.671875 1561.640625 962.523438 1548.609375 C 867.339844 1454.25 909.816406 1447.328125 916.6875 1385.511719 C 846.070312 1371.550781 744.585938 1345.519531 704.53125 1304.960938 C 731.714844 1289.691406 758.765625 1317.789062 807.4375 1298.101562 C 771.613281 1266.960938 649.105469 1224.070312 596.074219 1197.039062 C 546.265625 1171.660156 430.695312 1111.601562 415.824219 1070.929688 C 511.898438 1071.640625 590.386719 1073.648438 685.566406 1069.730469 C 675.902344 1054.410156 675.4375 1055.160156 653.808594 1041.570312 C 641.332031 1033.730469 631.976562 1027.820312 619.839844 1019.878906 C 524.371094 957.421875 522.679688 965.921875 442.589844 879.648438 C 644.128906 870.570312 611.632812 871.171875 829.773438 879.480469 C 854.527344 805.480469 921.53125 716.390625 967.835938 683.410156 C 1062.539062 615.949219 1098.859375 617.800781 1234.039062 611.609375 C 1277.539062 526.640625 1303.601562 316.671875 1516.289062 249.109375 C 1530.78125 244.511719 1555.25 236.878906 1570.640625 237.050781 "/>
<path fill-rule="evenodd" fill="rgb(100%, 100%, 100%)" fill-opacity="1" d="M 1791.191406 1730.46875 C 1778.921875 1702 1741.660156 1671.449219 1712.898438 1662.230469 C 1721.988281 1644.441406 1726.851562 1637.828125 1737.921875 1620.691406 C 1752.339844 1598.351562 1746.828125 1601.371094 1763.730469 1590.171875 C 1819.441406 1626.039062 1849.851562 1747.320312 1823.101562 1838.183594 C 1783.570312 1972.417969 1687.929688 1883.953125 1612.210938 1893.148438 L 1628.160156 1910.261719 C 1628.820312 1908.886719 1631.238281 1912.925781 1632.648438 1913.757812 L 1592.929688 1918.285156 C 1602.398438 1956.691406 1639.230469 1949.027344 1677.46875 1949.714844 C 1646.460938 1963.550781 1619.359375 1961.378906 1600.109375 1987.984375 C 1619.710938 1997.886719 1635.21875 1992.792969 1655.128906 1984.386719 L 1791.609375 1917.152344 C 1796.609375 1922.066406 1795.550781 1920.695312 1801.289062 1929.289062 C 1813.941406 1948.257812 1825.351562 1975.089844 1822.378906 1998.710938 C 1817.800781 2035.289062 1769.929688 2107.46875 1714.140625 2126.566406 C 1290.929688 2271.433594 1210.339844 1770.980469 1458.171875 1661.738281 C 1607.738281 1595.820312 1686.960938 1692.21875 1719.070312 1702.550781 C 1744.328125 1710.671875 1711.390625 1699.46875 1736.050781 1705.25 C 1761.351562 1711.179688 1765.238281 1723.269531 1791.191406 1730.46875 "/>
<path fill-rule="evenodd" fill="rgb(99.021912%, 99.021912%, 99.021912%)" fill-opacity="1" d="M 1525.078125 1355.519531 C 1473.878906 1361.96875 1464.238281 1377.019531 1388.5 1372.960938 C 1337.128906 1370.199219 1283.800781 1362.359375 1243.058594 1383.589844 C 1237.449219 1420.398438 1252.960938 1443.859375 1278.960938 1469.308594 C 1303.609375 1493.441406 1522.03125 1524.660156 1525.078125 1355.519531 Z M 1066.769531 1333.710938 C 1054.179688 1355.28125 1059.960938 1359.671875 1060.988281 1386.121094 C 1070.808594 1378.421875 1083.261719 1372.410156 1077.679688 1350.839844 C 1070.820312 1324.359375 1071.910156 1339.5 1066.769531 1333.710938 Z M 1366.460938 1276.820312 C 1355.078125 1286.660156 1348.570312 1286.410156 1350.488281 1311.769531 C 1352.300781 1335.660156 1360.859375 1335.019531 1373.429688 1339.46875 C 1396.441406 1319.421875 1399.730469 1289.921875 1366.460938 1276.820312 Z M 1484.941406 1340.140625 C 1516.199219 1338.28125 1518.28125 1335.191406 1513.789062 1309.628906 L 1472.738281 1304.410156 C 1480.28125 1322.351562 1483.058594 1318.78125 1484.351562 1321.941406 C 1490.21875 1336.210938 1474.351562 1312.46875 1484.941406 1340.140625 Z M 1519.789062 1286.371094 C 1549.679688 1265.359375 1544.058594 1231.289062 1519.789062 1214.820312 C 1491.078125 1229.019531 1487.300781 1270.5 1519.789062 1286.371094 Z M 1386.671875 1257.519531 C 1345.691406 1202.75 1258.011719 1195.71875 1169.738281 1203.179688 L 1185.410156 1256.109375 L 1257.191406 1237.691406 C 1243.191406 1281.621094 1222.699219 1322.511719 1257.53125 1356.46875 C 1236.589844 1211.480469 1324.78125 1241.621094 1386.671875 1257.519531 Z M 1467.519531 1232.398438 C 1459.519531 1198.941406 1462.738281 1158.519531 1491.910156 1136.671875 C 1526.261719 1156.949219 1517.03125 1163.578125 1527.378906 1199.238281 C 1550.808594 1160.171875 1517.601562 1133.769531 1511.128906 1109.808594 C 1542.828125 1073 1550.558594 1085.558594 1534.878906 1020.53125 C 1486.550781 1044.839844 1453.199219 1124.769531 1449.261719 1179.691406 C 1444.210938 1250.160156 1465.820312 1232.140625 1467.519531 1232.398438 Z M 1600.578125 1319.320312 L 1603.390625 1334.898438 C 1560.941406 1346.398438 1598.441406 1387.429688 1523.640625 1448.058594 C 1491.21875 1474.328125 1436.230469 1495.441406 1380.261719 1498.410156 C 1302.890625 1502.53125 1118.320312 1463.160156 1080.710938 1409.589844 C 1079.441406 1410.671875 1077.699219 1410.949219 1077.140625 1413.078125 C 1075.488281 1419.359375 1061.320312 1426.769531 1052.828125 1429.949219 C 1021.621094 1405.261719 961.246094 1326.871094 1011.628906 1264.671875 C 1046.480469 1270.421875 1059.378906 1281.011719 1072.21875 1306.621094 C 1086.769531 1300.960938 1086.628906 1301.070312 1096.269531 1297.839844 L 1118.148438 1291.019531 C 1101.148438 1247.5 1070.429688 1205.089844 1046.851562 1137.75 C 1090.191406 1152.601562 1099.398438 1179.78125 1167.109375 1191.210938 C 1152.539062 1138.308594 1131.800781 1098.578125 1137.558594 1034.839844 C 1218.75 1075.46875 1280.941406 1182.800781 1320.148438 1203.121094 C 1322.050781 1094.511719 1309.128906 1088.421875 1283.449219 1004.648438 C 1358.761719 1039.089844 1380.441406 1192.351562 1387.371094 1206.980469 C 1473.839844 1161.851562 1461.941406 986.578125 1439.941406 878.828125 C 1485.359375 893.910156 1506.730469 928.808594 1527.929688 976.070312 C 1539.960938 1002.910156 1554.910156 1063.121094 1544.988281 1093.230469 C 1538.988281 1111.460938 1532.019531 1107.378906 1527.949219 1123.160156 C 1557.429688 1127.21875 1554.949219 1119.800781 1577.039062 1109.871094 C 1574.230469 1149.570312 1554.730469 1231.238281 1568.578125 1261.621094 C 1604.621094 1228.28125 1579.460938 1184.351562 1596.460938 1144.101562 C 1629.171875 1191.171875 1576.289062 1303.050781 1580.628906 1320.898438 C 1592.96875 1323.078125 1585.328125 1323.550781 1600.578125 1319.320312 "/>
<path fill-rule="evenodd" fill="rgb(100%, 100%, 100%)" fill-opacity="1" d="M 1334.488281 1740.921875 C 1290.589844 1814.980469 1311.191406 1800.609375 1164.789062 1834.980469 C 1087.648438 1853.078125 1030.710938 1873.039062 1012.621094 1940.011719 C 1047.230469 1954.246094 1068.800781 1956.378906 1095.109375 1980.816406 C 1121.019531 2004.878906 1125.230469 2018.878906 1147.921875 2047.183594 C 1181.378906 1999.757812 1204.320312 1916.621094 1295.609375 1903.359375 C 1295.621094 1957.578125 1304.230469 1970.652344 1311.589844 2015.859375 C 1282.929688 2042.285156 1277.769531 2059.625 1245.511719 2075.949219 C 1221.351562 2088.175781 1180.050781 2101.035156 1174.71875 2125.035156 C 1220.648438 2190.519531 1285.191406 2084.328125 1303.730469 2067.578125 C 1307 2072.738281 1302.941406 2065.667969 1305.910156 2074.941406 L 1310.699219 2088.714844 C 1344.308594 2067.585938 1353.828125 2084.726562 1364.859375 2113.941406 C 1277.160156 2195.566406 1318.148438 2186.171875 1264.730469 2200.117188 C 1216.03125 2212.835938 1149.621094 2218.191406 1094.5 2211.746094 C 1025.359375 2203.660156 1026.238281 2168.492188 987.757812 2136.609375 C 946.605469 2102.507812 920.496094 2101.578125 907.695312 2035.609375 C 894.625 1968.277344 909.121094 1923.195312 938.128906 1880.234375 C 966.695312 1837.921875 974.710938 1799.570312 1014.859375 1775.898438 C 1088.859375 1732.269531 1197.851562 1753.398438 1334.488281 1740.921875 "/>
<path fill-rule="evenodd" fill="rgb(100%, 100%, 100%)" fill-opacity="1" d="M 1603.390625 1334.898438 L 1600.578125 1319.320312 C 1605.210938 1301.550781 1633.140625 1261.128906 1650.449219 1250.238281 C 1634.429688 1324.308594 1628.210938 1437.421875 1693.820312 1500.160156 C 1712.339844 1517.871094 1712.929688 1506.109375 1725.761719 1524.191406 C 1726.628906 1525.421875 1740.140625 1560.441406 1740.5 1561.210938 C 1739.058594 1560.898438 1736.941406 1558.320312 1736.390625 1559.589844 C 1726.351562 1582.761719 1743.199219 1554.738281 1710.148438 1551.078125 C 1676.691406 1699.929688 1610.371094 1570.28125 1446.960938 1643.210938 C 1402.429688 1663.089844 1365.089844 1687.320312 1310.339844 1693.96875 C 1288.230469 1696.648438 1138.449219 1695.371094 1117.289062 1692.160156 C 1086.539062 1636.539062 1093.660156 1606.148438 1049.21875 1552.421875 C 1017.28125 1513.789062 985.984375 1472.480469 969.277344 1414.570312 C 1001.371094 1420.058594 1084.328125 1451.910156 1115.800781 1465.089844 C 1153.941406 1481.078125 1287.691406 1609.550781 1400.390625 1562.179688 C 1446.519531 1542.789062 1488.671875 1486.441406 1516.160156 1482.160156 C 1508.519531 1498.421875 1506.058594 1512.089844 1494.75 1530.839844 C 1478.601562 1557.601562 1466.699219 1556.300781 1466.609375 1581.171875 C 1529.261719 1585.140625 1519.609375 1516.671875 1543.738281 1468.140625 C 1580.25 1394.730469 1600.730469 1443.03125 1603.390625 1334.898438 "/>
<path fill-rule="evenodd" fill="rgb(100%, 100%, 100%)" fill-opacity="1" d="M 1966.738281 1236.96875 C 1970.378906 1340.148438 1945.230469 1253.640625 1973.121094 1451.570312 C 1886.160156 1443.5 1841.890625 1470.109375 1770.558594 1473.078125 C 1760.421875 1473.511719 1746.351562 1473.089844 1737.179688 1474.660156 L 1708.421875 1485.25 C 1691.039062 1448.320312 1672.660156 1430.71875 1662.570312 1378.78125 C 1625.710938 1189.128906 1763.148438 1231.011719 1812.628906 1232.421875 C 1863.730469 1233.878906 1915.480469 1236.609375 1966.738281 1236.96875 "/>
<path fill-rule="evenodd" fill="rgb(99.021912%, 99.021912%, 99.021912%)" fill-opacity="1" d="M 2299.480469 1439.691406 C 2302.550781 1393.109375 2317.289062 1318.851562 2224.820312 1379.738281 C 2224.238281 1453.671875 2264.941406 1426.03125 2264.78125 1479.230469 C 2181.21875 1513.171875 2095.851562 1380.820312 2126.878906 1278.609375 C 2152.929688 1277.921875 2340.25 1260.269531 2358.449219 1289.910156 C 2385.230469 1333.5 2343.371094 1295.511719 2348.121094 1352.949219 C 2352.378906 1404.351562 2380.769531 1428.808594 2299.480469 1439.691406 "/>
<path fill-rule="evenodd" fill="rgb(1.997375%, 1.997375%, 1.997375%)" fill-opacity="1" d="M 1457.011719 1444.691406 L 1279.121094 1443.230469 C 1307.890625 1493.851562 1442.039062 1482.960938 1457.011719 1444.691406 Z M 1253.160156 1395.570312 C 1276.050781 1431.949219 1347.898438 1409.96875 1387.039062 1407.78125 C 1448.109375 1404.359375 1496.550781 1427.5 1512.910156 1380.289062 C 1465.5 1381.738281 1421.550781 1385.539062 1373.429688 1384.191406 C 1321.410156 1382.730469 1281.628906 1369.191406 1253.160156 1395.570312 Z M 1243.058594 1383.589844 C 1283.800781 1362.359375 1337.128906 1370.199219 1388.5 1372.960938 C 1464.238281 1377.019531 1473.878906 1361.96875 1525.078125 1355.519531 C 1522.03125 1524.660156 1303.609375 1493.441406 1278.960938 1469.308594 C 1252.960938 1443.859375 1237.449219 1420.398438 1243.058594 1383.589844 "/>
<path fill-rule="evenodd" fill="rgb(1.997375%, 1.997375%, 1.997375%)" fill-opacity="1" d="M 1386.671875 1257.519531 C 1324.78125 1241.621094 1236.589844 1211.480469 1257.53125 1356.46875 C 1222.699219 1322.511719 1243.191406 1281.621094 1257.191406 1237.691406 L 1185.410156 1256.109375 L 1169.738281 1203.179688 C 1258.011719 1195.71875 1345.691406 1202.75 1386.671875 1257.519531 "/>
<path fill-rule="evenodd" fill="rgb(98.046875%, 98.046875%, 98.046875%)" fill-opacity="1" d="M 1011.878906 1625.558594 L 1011.148438 1646.480469 C 979.769531 1662.609375 964.144531 1639.28125 938.359375 1674.351562 C 948.113281 1680.5 944.429688 1684.230469 983.050781 1683.128906 C 1009.148438 1682.378906 1010.710938 1679.449219 1034.679688 1684.851562 C 1022.800781 1746.621094 974.269531 1691.789062 943.148438 1730.109375 C 973.800781 1762.570312 988.757812 1733.199219 1028.738281 1739.261719 C 1013.171875 1756.550781 994.03125 1769.46875 969.195312 1779.109375 C 917.105469 1749.761719 892.769531 1599.101562 995.976562 1619.75 C 1010.25 1622.601562 1004.191406 1620.980469 1011.878906 1625.558594 "/>
<path fill-rule="evenodd" fill="rgb(1.997375%, 1.997375%, 1.997375%)" fill-opacity="1" d="M 1511.128906 1109.808594 C 1517.601562 1133.769531 1550.808594 1160.171875 1527.378906 1199.238281 C 1517.03125 1163.578125 1526.261719 1156.949219 1491.910156 1136.671875 C 1462.738281 1158.519531 1459.519531 1198.941406 1467.519531 1232.398438 C 1465.820312 1232.140625 1444.210938 1250.160156 1449.261719 1179.691406 C 1453.199219 1124.769531 1486.550781 1044.839844 1534.878906 1020.53125 C 1550.558594 1085.558594 1542.828125 1073 1511.128906 1109.808594 "/>
<path fill-rule="evenodd" fill="rgb(97.068787%, 97.068787%, 97.068787%)" fill-opacity="1" d="M 1253.160156 1395.570312 C 1281.628906 1369.191406 1321.410156 1382.730469 1373.429688 1384.191406 C 1421.550781 1385.539062 1465.5 1381.738281 1512.910156 1380.289062 C 1496.550781 1427.5 1448.109375 1404.359375 1387.039062 1407.78125 C 1347.898438 1409.96875 1276.050781 1431.949219 1253.160156 1395.570312 "/>
<path fill-rule="evenodd" fill="rgb(97.068787%, 97.068787%, 97.068787%)" fill-opacity="1" d="M 1457.011719 1444.691406 C 1442.039062 1482.960938 1307.890625 1493.851562 1279.121094 1443.230469 L 1457.011719 1444.691406 "/>
<path fill-rule="evenodd" fill="rgb(97.068787%, 97.068787%, 97.068787%)" fill-opacity="1" d="M 1854.421875 1966.859375 C 1869.058594 1987.351562 1875.351562 2026.007812 1878.121094 2057.675781 C 1855.460938 2087.355469 1832.710938 2107.949219 1786.898438 2112.460938 C 1795.429688 2091.039062 1789.859375 2101.769531 1805.359375 2085.507812 C 1852.351562 2036.214844 1849.5 2022.824219 1854.421875 1966.859375 "/>
<path fill-rule="evenodd" fill="rgb(97.068787%, 97.068787%, 97.068787%)" fill-opacity="1" d="M 1048.351562 1594.351562 C 1009.039062 1574.519531 990.4375 1531.609375 968.722656 1514.519531 C 951.347656 1500.828125 937.816406 1504.699219 930.589844 1476.46875 C 923.480469 1448.679688 926.996094 1424.808594 941.316406 1410.269531 L 946.578125 1418.550781 C 960.152344 1449.96875 958.746094 1466 982.296875 1507.980469 C 1003.148438 1545.160156 1028.550781 1551.878906 1048.351562 1594.351562 "/>
<path fill-rule="evenodd" fill="rgb(96.09375%, 96.09375%, 96.09375%)" fill-opacity="1" d="M 1410.828125 1517.128906 C 1397.738281 1539.191406 1421.300781 1519.75 1395.78125 1536.359375 C 1353.320312 1563.980469 1252.351562 1527.558594 1214.378906 1501.46875 C 1291.230469 1513.171875 1319.179688 1529.390625 1410.828125 1517.128906 "/>
<path fill-rule="evenodd" fill="rgb(97.068787%, 97.068787%, 97.068787%)" fill-opacity="1" d="M 1450.808594 2162.222656 C 1431.558594 2189.71875 1402.609375 2197.046875 1372.390625 2176.160156 L 1408.28125 2135.847656 C 1440.289062 2142.425781 1439.46875 2143.847656 1450.808594 2162.222656 "/>
<path fill-rule="evenodd" fill="rgb(1.997375%, 1.997375%, 1.997375%)" fill-opacity="1" d="M 1519.789062 1286.371094 C 1487.300781 1270.5 1491.078125 1229.019531 1519.789062 1214.820312 C 1544.058594 1231.289062 1549.679688 1265.359375 1519.789062 1286.371094 "/>
<path fill-rule="evenodd" fill="rgb(1.997375%, 1.997375%, 1.997375%)" fill-opacity="1" d="M 1366.460938 1276.820312 C 1399.730469 1289.921875 1396.441406 1319.421875 1373.429688 1339.46875 C 1360.859375 1335.019531 1352.300781 1335.660156 1350.488281 1311.769531 C 1348.570312 1286.410156 1355.078125 1286.660156 1366.460938 1276.820312 "/>
<path fill-rule="evenodd" fill="rgb(96.09375%, 96.09375%, 96.09375%)" fill-opacity="1" d="M 2271.339844 1381.160156 C 2279.941406 1395.429688 2275.921875 1363.941406 2278.011719 1402.550781 C 2278.390625 1409.640625 2276.050781 1425.871094 2274.960938 1432.980469 C 2256.328125 1426.101562 2250.039062 1412.921875 2245.171875 1395.570312 C 2254.898438 1382.910156 2249.351562 1373.410156 2271.339844 1381.160156 "/>
<path fill-rule="evenodd" fill="rgb(2.999878%, 2.999878%, 2.999878%)" fill-opacity="1" d="M 1484.941406 1340.140625 C 1474.351562 1312.46875 1490.21875 1336.210938 1484.351562 1321.941406 C 1483.058594 1318.78125 1480.28125 1322.351562 1472.738281 1304.410156 L 1513.789062 1309.628906 C 1518.28125 1335.191406 1516.199219 1338.28125 1484.941406 1340.140625 "/>
<path fill-rule="evenodd" fill="rgb(89.0625%, 89.0625%, 89.0625%)" fill-opacity="1" d="M 1854.421875 1966.859375 C 1837.511719 1947.425781 1816.730469 1925.113281 1820.050781 1892.6875 C 1843.28125 1908.320312 1851.21875 1937.316406 1854.421875 1966.859375 "/>
<path fill-rule="evenodd" fill="rgb(12.010193%, 12.010193%, 12.010193%)" fill-opacity="1" d="M 1077.679688 1350.839844 C 1083.261719 1372.410156 1070.808594 1378.421875 1060.988281 1386.121094 C 1059.960938 1359.671875 1054.179688 1355.28125 1066.769531 1333.710938 C 1071.910156 1339.5 1070.820312 1324.359375 1077.679688 1350.839844 "/>
<path fill-rule="evenodd" fill="rgb(96.09375%, 96.09375%, 96.09375%)" fill-opacity="1" d="M 1059.800781 1669.800781 C 1043.570312 1659.070312 1031.960938 1649.839844 1045.859375 1626 C 1047.128906 1627.128906 1049.269531 1627 1049.761719 1629.269531 C 1050.28125 1631.660156 1057.699219 1633.5 1061.960938 1645.460938 C 1074.980469 1682.039062 1061.191406 1666.699219 1059.800781 1669.800781 "/>
<path fill-rule="evenodd" fill="rgb(88.084412%, 88.084412%, 88.084412%)" fill-opacity="1" d="M 2376.171875 1390.308594 L 2368.800781 1338.378906 C 2374.871094 1344.179688 2380.539062 1348.699219 2382.398438 1363.871094 C 2386.53125 1397.601562 2378.199219 1386.589844 2376.171875 1390.308594 "/>
</svg>
